<?xml version="1.0" standalone="no"?>
<!DOCTYPE svg PUBLIC "-//W3C//DTD SVG 20010904//EN"
 "http://www.w3.org/TR/2001/REC-SVG-20010904/DTD/svg10.dtd">
<svg version="1.0" xmlns="http://www.w3.org/2000/svg"
 width="512.000000pt" height="512.000000pt" viewBox="0 0 512.000000 512.000000"
 preserveAspectRatio="xMidYMid meet">
<metadata>
Created by potrace 1.11, written by Peter Selinger 2001-2013
</metadata>
<g transform="translate(0.000000,512.000000) scale(0.100000,-0.100000)"
fill="#000000" stroke="none">
<path d="M513 3705 c-143 -39 -236 -134 -263 -268 -23 -113 12 -230 87 -297
58 -51 131 -77 262 -96 125 -17 162 -28 186 -54 25 -28 31 -109 12 -147 -46
-88 -260 -97 -394 -16 l-57 34 -70 -68 c-39 -37 -73 -70 -76 -71 -8 -6 71 -69
121 -96 68 -38 160 -56 284 -56 207 0 332 61 403 195 24 45 27 61 27 150 0 89
-3 106 -28 157 -52 106 -126 145 -334 177 -131 20 -166 35 -191 82 -16 30 -9
91 13 125 27 42 78 57 175 52 75 -3 94 -8 145 -37 l58 -33 71 72 71 71 -35 30
c-109 94 -314 135 -467 94z"/>
<path d="M1190 3615 l0 -105 225 -2 225 -3 -42 -65 c-23 -36 -128 -204 -235
-374 l-193 -309 0 -89 0 -88 375 0 375 0 0 100 0 100 -240 0 -239 0 28 43 c41
61 274 430 370 584 l82 132 -3 88 -3 88 -362 3 -363 2 0 -105z"/>
<path d="M2399 3693 c-38 -99 -339 -918 -395 -1076 l-13 -38 72 3 71 3 17 45
c8 25 28 80 43 123 l28 77 240 -2 240 -3 42 -120 42 -120 73 -3 c67 -3 73 -1
66 15 -8 21 -375 1029 -396 1086 -13 36 -14 37 -66 37 -49 0 -54 -2 -64 -27z
m162 -453 c50 -145 93 -270 96 -277 4 -9 -40 -13 -196 -15 -176 -3 -200 -1
-195 12 13 32 174 488 174 493 0 13 21 59 25 56 2 -3 45 -123 96 -269z"/>
<path d="M3107 3713 c-4 -3 -7 -260 -7 -570 l0 -563 65 0 65 0 0 229 0 230
203 3 c187 3 206 5 254 27 71 31 145 111 169 181 29 87 25 199 -11 278 -38 85
-105 145 -192 172 -57 18 -93 20 -302 20 -131 0 -241 -3 -244 -7z m530 -141
c84 -44 123 -137 103 -244 -14 -72 -45 -114 -109 -145 -51 -25 -64 -27 -228
-31 l-173 -5 0 228 0 227 183 -4 c165 -3 186 -6 224 -26z"/>
<path d="M4090 3151 l0 -571 65 0 65 0 0 229 0 230 203 3 202 3 63 34 c76 42
125 95 153 170 30 81 24 214 -14 288 -36 69 -88 120 -156 152 -55 26 -59 26
-318 29 l-263 3 0 -570z m497 434 c56 -17 117 -74 130 -122 16 -56 8 -156 -15
-200 -46 -88 -123 -113 -349 -113 l-133 0 0 225 0 225 158 0 c112 0 173 -4
209 -15z"/>
<path d="M838 1871 c-75 -25 -116 -51 -172 -111 -160 -171 -148 -427 27 -586
75 -67 145 -95 252 -101 92 -6 178 17 251 68 256 176 228 567 -51 705 -64 32
-85 37 -162 40 -67 3 -101 0 -145 -15z m218 -322 c16 -4 52 -7 79 -8 l50 -2
-59 -53 -59 -53 12 -63 c7 -34 15 -69 18 -78 6 -16 -38 5 -107 50 -24 16 -27
15 -90 -22 -35 -22 -65 -38 -67 -36 -2 1 4 35 13 75 9 41 13 76 8 80 -5 5 -32
29 -60 53 l-52 45 75 7 c41 3 78 8 82 10 4 3 20 37 36 76 l28 70 32 -72 c26
-62 35 -74 61 -79z"/>
<path d="M1926 1879 c-65 -15 -155 -70 -203 -123 -188 -208 -123 -528 131
-647 203 -95 442 -7 539 199 30 62 32 75 32 172 0 97 -2 110 -31 170 -17 36
-47 83 -67 105 -91 104 -262 157 -401 124z m351 -191 l21 -23 -186 -200 c-103
-110 -190 -200 -194 -200 -3 0 -49 47 -102 104 -94 103 -95 104 -78 127 9 13
21 24 26 24 5 0 41 -34 79 -75 38 -41 74 -75 80 -74 7 0 81 77 166 170 84 93
157 169 160 169 4 0 17 -10 28 -22z"/>
<path d="M4013 1870 c-144 -47 -248 -172 -275 -330 -29 -171 68 -353 231 -433
62 -30 73 -32 172 -32 101 0 108 1 181 38 308 152 309 582 1 734 -66 33 -85
37 -161 40 -66 2 -102 -2 -149 -17z m235 -307 l-72 -73 72 -73 c68 -69 71 -74
55 -90 -16 -16 -21 -13 -90 55 l-73 72 -70 -69 c-66 -66 -71 -68 -87 -52 -17
16 -14 21 53 88 l70 70 -70 69 c-68 66 -70 70 -53 87 16 17 20 14 87 -52 l70
-70 72 72 c68 68 73 71 90 56 18 -16 16 -20 -54 -90z"/>
<path d="M2963 1866 c-108 -35 -214 -133 -254 -234 -33 -81 -33 -223 0 -305
32 -81 115 -168 199 -209 63 -31 72 -33 177 -33 100 0 115 3 167 28 123 60
205 169 229 304 30 169 -63 348 -219 425 -58 29 -77 33 -161 35 -61 2 -111 -2
-138 -11z m170 -253 c-2 -43 -6 -106 -9 -140 l-6 -63 -34 0 c-19 0 -36 6 -38
13 -3 6 -7 69 -10 140 l-6 127 53 0 52 0 -2 -77z m-15 -239 c14 -10 22 -26 22
-44 0 -72 -94 -82 -115 -13 -4 17 1 29 19 48 29 29 43 31 74 9z"/>
</g>
</svg>
