<svg xmlns="http://www.w3.org/2000/svg" xmlns:xlink="http://www.w3.org/1999/xlink" viewBox="0 0 1995 1154">
  <defs>
    <style>
      .b{fill:#999}.c{opacity:.5}.d{opacity:.3}.e{fill:#404040}.j{opacity:.75}
    </style>
    <linearGradient id="a" x1="173.76" x2="732.24" y1="460" y2="460" gradientUnits="userSpaceOnUse">
      <stop offset="0" stop-color="#fff"/>
      <stop offset=".24" stop-color="#fcfcfc"/>
      <stop offset=".41" stop-color="#f3f3f3"/>
      <stop offset=".56" stop-color="#e3e3e3"/>
      <stop offset=".7" stop-color="#cdcdcd"/>
      <stop offset=".84" stop-color="#b0b0b0"/>
      <stop offset=".96" stop-color="#8d8d8d"/>
      <stop offset="1" stop-color="gray"/>
    </linearGradient>
    <linearGradient id="b" x1="998.95" x2="996.13" y1="1021.79" y2="170.54" gradientUnits="userSpaceOnUse">
      <stop offset="0" stop-color="#fff"/>
      <stop offset="1" stop-color="#03a9f4"/>
    </linearGradient>
    <linearGradient id="c" x1="1070.72" x2="1191.2" y1="78.92" y2="78.92" gradientUnits="userSpaceOnUse">
      <stop offset="0" stop-color="#ffeb3b" stop-opacity=".75"/>
      <stop offset=".2" stop-color="#fee539" stop-opacity=".83"/>
      <stop offset=".49" stop-color="#fede37" stop-opacity=".92"/>
      <stop offset=".76" stop-color="#fdd935" stop-opacity=".98"/>
      <stop offset="1" stop-color="#fdd835"/>
    </linearGradient>
    <linearGradient id="d" x1="1178.2" x2="1199.74" y1="92.88" y2="92.88" gradientUnits="userSpaceOnUse">
      <stop offset="0" stop-color="#fff"/>
      <stop offset=".21" stop-color="#fdfdfd"/>
      <stop offset=".36" stop-color="#f5f5f5" stop-opacity=".98"/>
      <stop offset=".51" stop-color="#e8e8e8" stop-opacity=".95"/>
      <stop offset=".64" stop-color="#d5d5d5" stop-opacity=".92"/>
      <stop offset=".77" stop-color="#bdbdbd" stop-opacity=".87"/>
      <stop offset=".89" stop-color="#a0a0a0" stop-opacity=".81"/>
      <stop offset="1" stop-color="gray" stop-opacity=".75"/>
    </linearGradient>
    <linearGradient id="e" x1="1120.24" x2="1143.03" y1="115.66" y2="115.66" xlink:href="#d"/>
    <linearGradient id="f" x1="723.24" x2="819.2" y1="78.72" y2="78.72" gradientTransform="rotate(.2 -7963.553 16744.3)" xlink:href="#a"/>
    <linearGradient id="g" x1="429.53" x2="526.8" y1="102.86" y2="102.86" gradientUnits="userSpaceOnUse">
      <stop offset="0" stop-color="#fff"/>
      <stop offset=".14" stop-color="#fbfbfb" stop-opacity=".99"/>
      <stop offset=".3" stop-color="#f1f1f1" stop-opacity=".97"/>
      <stop offset=".47" stop-color="#dfdfdf" stop-opacity=".94"/>
      <stop offset=".65" stop-color="#c6c6c6" stop-opacity=".89"/>
      <stop offset=".82" stop-color="#a6a6a6" stop-opacity=".82"/>
      <stop offset="1" stop-color="gray" stop-opacity=".75"/>
    </linearGradient>
    <symbol id="h" viewBox="0 0 922 922">
      <path fill="#f44336" d="M461 921a458.1 458.1 0 1 1 179.1-36.1A459.2 459.2 0 0 1 461 921z"/>
      <path d="M461 2a458.7 458.7 0 0 1 459 459 458.7 458.7 0 0 1-459 459A458.7 458.7 0 0 1 2 461 458.7 458.7 0 0 1 461 2m0-2C206.4 0 0 206.4 0 461s206.4 461 461 461 461-206.4 461-461S715.6 0 461 0z" class="b"/>
      <g class="d">
        <path d="M360.6 462.1L189.8 218h211.5l64.5 91 61.7-91h210.1L572.2 460.8l176 251.2H536.4L467 613.9 400.2 712H189.8z" class="e"/>
      </g>
      <path fill="url(#a)" d="M344.6 457.1L173.8 213h211.5l64.5 91 61.7-91h210.1L556.2 455.8l176 251.2H520.4L451 608.9 384.2 707H173.8z"/>
    </symbol>
  </defs>
  <path fill="url(#b)" d="M0 15h1995v1139H0z"/>
  <use width="922" height="922" transform="matrix(.13 0 0 .14 1480.4 44.3)" xlink:href="#h"/>
  <path fill="url(#c)" d="M1131 140.3c-33.3 0-60.3-27.5-60.3-61.4s27-61.4 60.3-61.4 60.2 27.6 60.2 61.4-27 61.4-60.2 61.4zm.8-37a11.9 11.9 0 0 0-12.1 11.7 14.5 14.5 0 0 0 3.9 9.9 10.2 10.2 0 0 0 7.4 3.1c8.2 0 12.5-7.2 12.5-12.3s-3.2-12.4-11.7-12.4zm-8.9-7.1h16.2l3.2-66.6h-22.6z" transform="translate(58 30)"/>
  <path d="M1189 48c32.9 0 59.7 27.3 59.7 60.9s-26.8 60.9-59.7 60.9-59.8-27.3-59.8-60.9S1156 48 1189 48m-8.6 78.7h17.1v-1l3.1-65.6v-1H1177v1l3.2 65.6v1m8.6 31.8c8.5 0 13-7.5 13-12.8s-3.3-12.9-12.2-12.9A12.3 12.3 0 0 0 1177 145a15.3 15.3 0 0 0 4 10.2 10.5 10.5 0 0 0 7.8 3.3M1189 47c-33.6 0-60.8 27.7-60.8 61.9s27.2 61.9 60.8 61.9 60.7-27.7 60.7-61.9S1222.5 47 1189 47zm-7.6 78.7l-3.2-65.6h21.5l-3.1 65.6zm7.6 31.8c-7.8 0-10.9-7.8-10.8-12.5a11.3 11.3 0 0 1 11.6-11.2c7.9 0 11.2 6.9 11.2 11.9s-3.9 11.8-12 11.8z" class="b"/>
  <g class="d">
    <path d="M1212.6 130.7l3.1-65.6h-21.5l3.2 65.6h15.2z" class="e"/>
    <path d="M1214.7 66.1l-3.1 63.6h-13.3l-3-63.6h19.4m1-1h-21.5l3.2 65.6h15.2l3.1-65.6z"/>
  </g>
  <path fill="url(#d)" d="M1196.6 125.7l3.1-65.6h-21.5l3.2 65.6h15.2z"/>
  <g class="j">
    <path d="M1198.7 61.1l-3.1 63.6h-13.3l-3-63.6h19.4m1-1h-21.5l3.2 65.6h15.2l3.1-65.6z" class="b"/>
  </g>
  <g class="d">
    <path d="M1205.8 138.8a11.3 11.3 0 0 0-11.6 11.2c-.1 4.7 3 12.5 10.8 12.5s12-7.1 12-11.8-3.3-11.9-11.2-11.9z" class="e"/>
    <path d="M1205.8 139.8c7.4 0 10.2 6.5 10.2 10.9s-3.2 10.8-11 10.8a8.5 8.5 0 0 1-6.4-2.7 13.4 13.4 0 0 1-3.4-8.8 10.2 10.2 0 0 1 10.6-10.2m0-1a11.3 11.3 0 0 0-11.6 11.2c-.1 4.7 3 12.5 10.8 12.5s12-7.1 12-11.8-3.3-11.9-11.2-11.9z"/>
  </g>
  <path fill="url(#e)" d="M1131.8 103.8a11.3 11.3 0 0 0-11.6 11.2c-.1 4.7 3 12.5 10.8 12.5s12-7.1 12-11.8-3.3-11.9-11.2-11.9z" transform="translate(58 30)"/>
  <g class="j">
    <path d="M1189.8 134.8c7.4 0 10.2 6.5 10.2 10.9s-3.2 10.8-11 10.8a8.5 8.5 0 0 1-6.4-2.7 13.4 13.4 0 0 1-3.4-8.8 10.2 10.2 0 0 1 10.6-10.2m0-1a11.3 11.3 0 0 0-11.6 11.2c-.1 4.7 3 12.5 10.8 12.5s12-7.1 12-11.8-3.3-11.9-11.2-11.9z" class="b"/>
  </g>
  <ellipse cx="829.4" cy="108" fill="#8bc34a" rx="64.9" ry="61.5"/>
  <path d="M829.4 47c35.5 0 64.4 27.4 64.4 61s-28.9 61-64.4 61-64.4-27.4-64.4-61 28.9-61 64.4-61m0-1c-36.1 0-65.4 27.8-65.4 62s29.3 62 65.4 62 65.4-27.8 65.4-62-29.3-62-65.4-62z" class="b"/>
  <path fill="url(#f)" d="M864.3 68.7l-39.9 56.7L793.5 91l-12 9.4 35 36.3h-.1l11.6 12.1 49.5-72.2-13.2-7.9z"/>
  <path fill="#4caf50" d="M469.9 169.5a61.5 61.5 0 1 1 61.5-61.5 61.6 61.6 0 0 1-61.5 61.5zm-31.4-18.6l31.4-16.5 31.4 16.5-6-34.9 25.4-24.8-35.1-5.1-15.7-31.8-15.7 31.8-35.1 5.1 25.4 24.8z"/>
  <path d="M469.9 47a61 61 0 1 1-61 61 61.1 61.1 0 0 1 61-61m-16.1 38.7L420 90.6l-2 .3 1.5 1.4 24.4 23.9-5.7 33.7-.4 2 1.8-1 30.3-15.9 30.2 15.9 1.8 1-.3-2-5.8-33.7 24.5-23.9 1.4-1.4-2-.3-33.8-4.9L470.8 55l-.9-1.8-.9 1.8-15.2 30.7M469.9 46a62 62 0 1 0 62 62 62 62 0 0 0-62-62zm-30.8 104l5.9-34.2-24.8-24.2 34.3-5 15.4-31.1 15.3 31.1 34.4 5-24.9 24.2 5.9 34.2-30.7-16.1-30.8 16.1z" class="b"/>
  <g class="d">
    <path d="M461.6 120.6l-24.4-23.7 33.6-4.8 15.1-30.5 15 30.5 33.6 4.8-24.3 23.7 5.7 33.5-30-15.8-30.1 15.8 5.8-33.5z" class="e"/>
    <path d="M485.9 62.7L500.3 92l.3.5h.5l32.3 4.7-23.4 22.9-.3.4v.5l5.6 32.2-29-15.2-.4-.2-.5.2-28.9 15.2L462 121v-.5l-.4-.4-23.3-22.8 32.4-4.7h.5l.2-.5 14.5-29.3m0-2.2l-15.4 31-34.3 5 24.8 24.2-5.9 34.2 30.8-16.1 30.7 16.1-5.9-34.2 24.9-24.2-34.4-5-15.3-31.1z"/>
  </g>
  <path fill="url(#g)" d="M445.6 115.6l-24.4-23.7 33.6-4.8 15.1-30.5 15 30.5 33.6 4.8-24.3 23.7 5.7 33.5-30-15.8-30.1 15.8 5.8-33.5z"/>
  <path d="M469.9 57.7L484.3 87l.3.5h.5l32.3 4.7-23.4 22.9-.3.4v.5l5.6 32.2-29-15.2-.4-.2-.5.2-28.9 15.2L446 116v-.5l-.4-.4-23.3-22.8 32.4-4.7h.5l.2-.5 14.5-29.3m0-2.2l-15.4 31-34.3 5 24.8 24.2-5.9 34.2 30.8-16.1 30.7 16.1-5.9-34.2 24.9-24.2-34.4-5-15.3-31.1z" class="b"/>
</svg>
